<svg width="777" height="357" viewBox="0 0 777 357" fill="none" xmlns="http://www.w3.org/2000/svg">
<path d="M93.2945 7.11663C40.4236 19.9266 11.4 71.4999 3.49703 95.6853C-1.54111 107.695 -4.9789 141.821 21.5751 182.253C54.7675 232.792 34.9113 265.317 36.0968 265.317C22.1678 335.872 100.111 346.38 101.296 349.882C193.168 361.391 663.79 359.89 719.802 338.374C775.815 316.857 753.587 263.315 753.587 261.814C743.867 238.196 749.537 217.613 753.587 210.274C773.444 181.252 777 122.706 777 118.203C773.74 3.61388 651.935 7.11663 651.935 7.11663C592.723 7.11664 159.383 -8.89579 93.2945 7.11663Z" fill="white"/>
</svg>
