<svg width="155" height="64" viewBox="0 0 155 64" fill="none" xmlns="http://www.w3.org/2000/svg">
<path d="M131.217 2.13779C87.0808 1.44157 35.1289 12.3408 14.6699 17.8774C5.08791 20.4705 -0.976147 28.9071 0.57742 44.8513C2.49905 64.573 25.5851 61.5538 29.4687 60.5635C61.3146 52.4427 139.781 47.7105 139.792 47.0474C144.716 45.4667 156.148 40.0088 154.4 20.0815C152.651 0.154282 131.217 2.13779 131.217 2.13779Z" fill="#EFAE16"/>
<path d="M45.6251 42.0601C45.7241 42.8338 45.0291 43.5478 44.2157 43.6518C43.7594 43.7102 43.2778 43.5702 42.8745 43.0975C41.4009 41.3504 41.0332 39.4214 40.2186 38.2554C39.9471 37.8667 39.3979 37.5135 38.763 37.5947L34.1209 38.1886L34.8137 43.6045C35.0218 45.2312 32.2444 45.5865 32.0363 43.9598L30.4578 31.6203C30.2751 30.192 30.8979 29.3864 32.3263 29.2037L37.6628 28.521C41.3924 28.0439 43.6113 29.3126 43.9844 32.2288C44.2204 34.0738 43.4682 35.6016 41.9445 36.3006C42.2873 36.4584 42.5808 36.7031 42.8299 37.0745C43.6098 38.2853 43.8449 39.8078 45.2484 41.3219C45.4798 41.5545 45.5947 41.822 45.6251 42.0601ZM41.2218 32.5419C41.0822 31.4508 39.9668 30.9281 38.1219 31.1641L33.3011 31.7808L33.7783 35.5104L38.8966 34.8557C40.5233 34.6476 41.3664 33.6727 41.2218 32.5419ZM58.4884 35.5754C58.9453 39.1463 56.7785 42.2262 53.2076 42.683C49.6367 43.1398 46.7645 40.7046 46.3077 37.1337C45.8509 33.5628 48.0151 30.4631 51.586 30.0063C55.1569 29.5495 58.0316 32.0045 58.4884 35.5754ZM55.8103 35.918C55.5489 33.8747 53.9119 32.2694 51.9083 32.5257C49.9046 32.7821 48.7245 34.7477 48.9859 36.7911C49.2473 38.8344 50.8791 40.4 52.8828 40.1437C54.8865 39.8873 56.0717 37.9614 55.8103 35.918ZM71.4995 39.0324C71.5934 39.7664 70.9844 40.2072 70.3496 40.2885C69.7346 40.3671 69.1186 40.1233 69.045 39.548L68.9791 39.0322C68.6446 40.0428 67.1733 40.8359 65.8839 41.0009C62.8287 41.3917 61.1028 39.8785 60.6612 36.4266L59.8694 30.237C59.6841 28.7888 62.3425 28.4488 62.5277 29.897L63.3119 36.027C63.5276 37.7133 64.324 38.5792 65.7523 38.3965C67.5576 38.1656 68.5264 36.9125 68.2676 34.889L67.5494 29.2747C67.4529 28.5209 68.0619 28.0801 68.7166 27.9963C69.3911 27.91 70.1163 28.2205 70.2128 28.9744L71.4995 39.0324ZM84.6824 37.3661C84.8677 38.8143 82.2093 39.1544 82.0241 37.7062L81.2475 31.6357C81.0292 29.9296 80.1287 29.0366 78.6408 29.227C76.8355 29.4579 75.8351 30.9368 76.0914 32.9405L76.7842 38.3563C76.8806 39.1102 76.2717 39.551 75.617 39.6348C74.9425 39.7211 74.2172 39.4106 74.1208 38.6567L72.8341 28.5987C72.7402 27.8647 73.3294 27.4264 73.9642 27.3452C74.5792 27.2665 75.2373 27.5251 75.3261 28.2194L75.3997 28.7947C75.7439 27.7022 77.1206 26.8002 78.4101 26.6353C81.6239 26.2242 83.4541 27.7644 83.8982 31.2361L84.6824 37.3661ZM97.783 35.5692C97.8794 36.3231 97.2633 36.8657 96.5888 36.952C96.1325 37.0103 95.6706 36.8678 95.3768 36.4618C95.2049 36.2217 95.0427 35.8996 95.0173 35.7012C94.279 36.8643 92.8149 37.5557 91.4857 37.7257C88.0933 38.1597 86.7971 36.8536 86.4238 34.7238C86.4162 34.6643 86.4061 34.5849 86.3985 34.5254C86.1929 32.9185 86.9883 31.7279 88.4224 30.9598C90.6491 29.7676 93.6578 29.6448 93.5081 28.4743C93.5056 28.4545 93.5005 28.4148 93.498 28.395C93.2973 27.6141 92.5074 27.2716 91.1386 27.4467C91.079 27.4543 91.0195 27.4619 90.96 27.4695C89.8541 27.6513 88.9282 28.294 88.4869 29.2578C88.2376 29.6728 87.8784 29.8599 87.5213 29.9056C86.827 29.9944 86.1013 29.5227 86.015 28.8482C85.9845 28.6101 86.0334 28.3619 86.179 28.0812C86.9434 26.4913 88.5948 25.3727 90.6331 25.0716C90.6728 25.0666 90.7125 25.0615 90.7521 25.0564C94.323 24.5996 96.0388 26.0335 96.4322 29.1084C96.4398 29.1679 96.4474 29.2274 96.455 29.287C96.5236 29.8226 96.5748 30.3806 96.6433 30.9162C96.8565 32.5827 97.1363 34.1397 97.6427 35.1033C97.725 35.2742 97.7652 35.4304 97.783 35.5692ZM94.1107 30.9781C93.1878 31.8019 91.5112 31.9357 89.926 32.7837C89.2646 33.1304 88.9486 33.6548 89.0247 34.2499C89.0298 34.2896 89.0324 34.3094 89.0374 34.3491C89.2061 35.1945 89.8372 35.5574 91.1664 35.3874C91.2061 35.3823 91.2259 35.3797 91.2656 35.3747C92.1558 35.2406 93.1366 34.7119 93.678 34.0579C94.081 33.5829 94.3273 32.9869 94.2258 32.1933C94.2207 32.1536 94.2182 32.1338 94.2157 32.114C94.1797 31.675 94.1107 30.9781 94.1107 30.9781ZM105.561 24.533C105.645 25.1877 105.352 25.8906 104.697 25.9743C104.677 25.9769 104.638 25.9819 104.598 25.987C104.394 25.9727 104.213 25.9757 104.015 26.0011C102.507 26.194 101.511 27.5513 101.755 29.4558L102.473 35.07C102.57 35.8239 101.961 36.2647 101.306 36.3485C100.632 36.4348 99.9063 36.1243 99.8099 35.3704L98.5181 25.2727C98.4242 24.5387 99.0729 24.0928 99.7276 24.009C100.362 23.9278 101.018 24.1666 101.092 24.7419L101.137 25.099C101.584 24.1749 102.602 23.6212 103.732 23.4766C103.951 23.4486 104.152 23.4431 104.372 23.435C105.094 23.4032 105.488 23.9577 105.561 24.533ZM119.296 33.1197C119.374 33.7347 118.758 34.116 118.103 34.1997C117.488 34.2784 116.837 34.0793 116.766 33.5239L116.688 32.9089C116.222 33.9968 114.964 34.7223 113.555 34.9025C110.342 35.3136 107.694 33.2126 107.199 29.3441C106.704 25.4757 108.735 22.7559 111.949 22.3448C113.298 22.1722 114.542 22.4366 115.335 23.2827L114.848 19.4737C114.668 18.0652 117.326 17.7251 117.506 19.1337L119.296 33.1197ZM116.066 28.2097C115.78 25.968 114.345 24.6797 112.539 24.9106C110.674 25.1492 109.59 26.7598 109.877 29.0015C110.164 31.2433 111.616 32.5092 113.481 32.2707C115.266 32.0423 116.353 30.4515 116.066 28.2097Z" fill="#430A00"/>
</svg>
